%
M48
M72
T01C0.03200
T02C0.03937
T03C0.04000
T04C0.04400
T05C0.05000
T06C0.05118
T07C0.12598
T08C0.78740
%
T01
X829600Y67600
X829600Y82600
X829600Y97600
X829600Y112600
X829600Y127600
X829600Y142600
X829600Y157600
X829600Y172600
X829600Y187600
X829600Y202600
X865600Y202600
X865600Y187600
X865600Y172600
X865600Y157600
X865600Y142600
X865600Y127600
X865600Y112600
X865600Y97600
X865600Y82600
X865600Y67600
T02
X702600Y432600
X702600Y442600
X702600Y452600
X702600Y462600
X702600Y472600
X702600Y482600
X702600Y492600
X702600Y502600
X702600Y517600
X702600Y527600
X702600Y537600
X702600Y547600
X702600Y557600
X702600Y567600
X702600Y577600
X702600Y587600
X512600Y552600
X512600Y542600
X512600Y532600
X512600Y522600
X512600Y512600
X512600Y502600
X512600Y482600
X512600Y472600
X512600Y462600
X512600Y452600
X512600Y442600
X512600Y432600
X367600Y242600
X367600Y232600
X367600Y222600
X367600Y212600
X367600Y202600
X367600Y192600
X367600Y172600
X367600Y162600
X367600Y152600
X367600Y142600
X367600Y132600
X367600Y122600
X177600Y117600
X177600Y107600
X177600Y97600
X177600Y87600
X177600Y127600
X177600Y137600
X177600Y147600
X177600Y157600
X177600Y172600
X177600Y182600
X177600Y192600
X177600Y202600
X177600Y212600
X177600Y222600
X177600Y232600
X177600Y242600
X107600Y247600
X107600Y267600
X112600Y182600
X112600Y147600
T03
X132600Y62600
X132600Y52600
X132600Y42600
X132600Y32600
X107600Y22600
X97600Y22600
X87600Y22600
X77600Y22600
X127600Y257600
X127600Y267600
X127600Y277600
X427600Y277600
X427600Y267600
X437600Y267600
X437600Y277600
X437600Y287600
X437600Y297600
X427600Y297600
X427600Y287600
X427600Y257600
X427600Y247600
X427600Y237600
X437600Y237600
X437600Y247600
X437600Y257600
X437600Y227600
X437600Y217600
X437600Y207600
X437600Y197600
X427600Y197600
X427600Y207600
X427600Y217600
X427600Y227600
X427600Y187600
X427600Y177600
X427600Y167600
X427600Y157600
X437600Y157600
X437600Y167600
X437600Y177600
X437600Y187600
X437600Y147600
X437600Y137600
X437600Y127600
X427600Y127600
X427600Y137600
X427600Y147600
X447600Y107600
X457600Y107600
X467600Y107600
X477600Y107600
X487600Y107600
X497600Y107600
X507600Y107600
X517600Y107600
X537600Y107600
X547600Y107600
X557600Y107600
X567600Y107600
X577600Y107600
X587600Y107600
X597600Y107600
X607600Y107600
X627600Y107600
X637600Y107600
X647600Y107600
X657600Y107600
X667600Y107600
X677600Y107600
X672600Y22600
X662600Y22600
X652600Y22600
X642600Y22600
X567600Y57600
X557600Y57600
X547600Y57600
X537600Y57600
X517600Y57600
X507600Y57600
X497600Y57600
X487600Y57600
X477600Y57600
X467600Y57600
X727600Y22600
X737600Y22600
X747600Y22600
X757600Y22600
X907600Y67600
X907600Y77600
X907600Y87600
X907600Y97600
X907600Y117600
X907600Y127600
X907600Y137600
X907600Y147600
X907600Y167600
X907600Y177600
X907600Y187600
X907600Y197600
X907600Y207600
X907600Y217600
X713600Y297600
X703600Y297600
X693600Y297600
X683600Y297600
X673600Y297600
X663600Y297600
X653600Y297600
X643600Y297600
X627600Y297600
X617600Y297600
X607600Y297600
X597600Y297600
X587600Y297600
X577600Y297600
X567600Y297600
X557600Y297600
X537600Y297600
X527600Y297600
X517600Y297600
X507600Y297600
X497600Y297600
X487600Y297600
X477600Y297600
X467600Y297600
X487600Y332600
X497600Y332600
X507600Y332600
X517600Y332600
X527600Y332600
X537600Y332600
X602600Y337600
X612600Y337600
X622600Y337600
X632600Y337600
X642600Y337600
X842600Y382600
X857600Y382600
X857600Y392600
X842600Y392600
X872600Y392600
X872600Y382600
X712600Y687600
X702600Y687600
X702600Y707600
X712600Y707600
X652600Y747600
X652600Y757600
X642600Y757600
X642600Y747600
X632600Y747600
X632600Y757600
X622600Y757600
X622600Y747600
X592600Y747600
X592600Y757600
X582600Y757600
X582600Y747600
X572600Y747600
X572600Y757600
X562600Y757600
X562600Y747600
T04
X437600Y382600
X437600Y372600
X437600Y362600
X392600Y362600
X392600Y372600
X392600Y382600
X37600Y222600
X37600Y212600
X37600Y202600
X37600Y142600
X37600Y132600
X37600Y122600
X37600Y82600
X37600Y72600
X37600Y62600
X27600Y342600
X27600Y352600
X27600Y362600
T05
X84700Y364850
X87600Y337600
X87600Y212600
X90500Y185350
X87600Y107600
X90500Y80350
T06
X502600Y407600
X702600Y122600
X702600Y42600
T07
X47600Y27600
X47600Y387600
X512600Y757600
X712600Y757600
X932600Y387600
X932600Y27600
T08
X307600Y322600
X207600Y322600
M30
