G75*
%MOIN*%
%OFA0B0*%
%FSLAX25Y25*%
%IPPOS*%
%LPD*%
%AMOC8*
5,1,8,0,0,1.08239X$1,22.5*
%
%ADD10C,0.07400*%
%ADD11OC8,0.07400*%
%ADD12C,0.05937*%
%ADD13C,0.06000*%
%ADD14C,0.14000*%
%ADD15C,0.07400*%
%ADD16OC8,0.06600*%
%ADD17R,0.07677X0.07677*%
%ADD18C,0.05000*%
%ADD19R,0.06600X0.06600*%
%ADD20C,0.06600*%
%ADD21C,0.04000*%
D10*
X0427600Y0127600D03*
X0437600Y0127600D03*
X0447600Y0107600D03*
X0457600Y0107600D03*
X0467600Y0107600D03*
X0477600Y0107600D03*
X0487600Y0107600D03*
X0497600Y0107600D03*
X0507600Y0107600D03*
X0517600Y0107600D03*
X0537600Y0107600D03*
X0547600Y0107600D03*
X0557600Y0107600D03*
X0567600Y0107600D03*
X0577600Y0107600D03*
X0587600Y0107600D03*
X0597600Y0107600D03*
X0607600Y0107600D03*
X0627600Y0107600D03*
X0637600Y0107600D03*
X0647600Y0107600D03*
X0657600Y0107600D03*
X0667600Y0107600D03*
X0677600Y0107600D03*
X0673600Y0297600D03*
X0663600Y0297600D03*
X0653600Y0297600D03*
X0643600Y0297600D03*
X0627600Y0297600D03*
X0617600Y0297600D03*
X0607600Y0297600D03*
X0597600Y0297600D03*
X0587600Y0297600D03*
X0577600Y0297600D03*
X0567600Y0297600D03*
X0557600Y0297600D03*
X0537600Y0297600D03*
X0527600Y0297600D03*
X0517600Y0297600D03*
X0507600Y0297600D03*
X0497600Y0297600D03*
X0487600Y0297600D03*
X0477600Y0297600D03*
X0467600Y0297600D03*
X0437600Y0297600D03*
X0427600Y0297600D03*
X0683600Y0297600D03*
X0693600Y0297600D03*
X0703600Y0297600D03*
X0713600Y0297600D03*
D11*
X0437600Y0287600D03*
X0437600Y0277600D03*
X0437600Y0267600D03*
X0427600Y0267600D03*
X0427600Y0277600D03*
X0427600Y0287600D03*
X0427600Y0257600D03*
X0427600Y0247600D03*
X0427600Y0237600D03*
X0437600Y0237600D03*
X0437600Y0247600D03*
X0437600Y0257600D03*
X0437600Y0227600D03*
X0437600Y0217600D03*
X0437600Y0207600D03*
X0437600Y0197600D03*
X0427600Y0197600D03*
X0427600Y0207600D03*
X0427600Y0217600D03*
X0427600Y0227600D03*
X0427600Y0187600D03*
X0427600Y0177600D03*
X0427600Y0167600D03*
X0427600Y0157600D03*
X0437600Y0157600D03*
X0437600Y0167600D03*
X0437600Y0177600D03*
X0437600Y0187600D03*
X0437600Y0147600D03*
X0437600Y0137600D03*
X0427600Y0137600D03*
X0427600Y0147600D03*
D12*
X0367600Y0142600D03*
X0367600Y0152600D03*
X0367600Y0162600D03*
X0367600Y0172600D03*
X0367600Y0192600D03*
X0367600Y0202600D03*
X0367600Y0212600D03*
X0367600Y0222600D03*
X0367600Y0232600D03*
X0367600Y0242600D03*
X0367600Y0132600D03*
X0367600Y0122600D03*
X0177600Y0117600D03*
X0177600Y0107600D03*
X0177600Y0097600D03*
X0177600Y0087600D03*
X0177600Y0127600D03*
X0177600Y0137600D03*
X0177600Y0147600D03*
X0177600Y0157600D03*
X0177600Y0172600D03*
X0177600Y0182600D03*
X0177600Y0192600D03*
X0177600Y0202600D03*
X0177600Y0212600D03*
X0177600Y0222600D03*
X0177600Y0232600D03*
X0177600Y0242600D03*
X0512600Y0432600D03*
X0512600Y0442600D03*
X0512600Y0452600D03*
X0512600Y0462600D03*
X0512600Y0472600D03*
X0512600Y0482600D03*
X0512600Y0502600D03*
X0512600Y0512600D03*
X0512600Y0522600D03*
X0512600Y0532600D03*
X0512600Y0542600D03*
X0512600Y0552600D03*
X0702600Y0547600D03*
X0702600Y0537600D03*
X0702600Y0527600D03*
X0702600Y0517600D03*
X0702600Y0502600D03*
X0702600Y0492600D03*
X0702600Y0482600D03*
X0702600Y0472600D03*
X0702600Y0462600D03*
X0702600Y0452600D03*
X0702600Y0442600D03*
X0702600Y0432600D03*
X0702600Y0557600D03*
X0702600Y0567600D03*
X0702600Y0577600D03*
X0702600Y0587600D03*
D13*
X0702600Y0684600D02*
X0702600Y0690600D01*
X0712600Y0690600D02*
X0712600Y0684600D01*
X0712600Y0704600D02*
X0712600Y0710600D01*
X0702600Y0710600D02*
X0702600Y0704600D01*
X0839600Y0392600D02*
X0845600Y0392600D01*
X0854600Y0392600D02*
X0860600Y0392600D01*
X0869600Y0392600D02*
X0875600Y0392600D01*
X0875600Y0382600D02*
X0869600Y0382600D01*
X0860600Y0382600D02*
X0854600Y0382600D01*
X0845600Y0382600D02*
X0839600Y0382600D01*
X0904600Y0217600D02*
X0910600Y0217600D01*
X0910600Y0207600D02*
X0904600Y0207600D01*
X0904600Y0197600D02*
X0910600Y0197600D01*
X0910600Y0187600D02*
X0904600Y0187600D01*
X0904600Y0177600D02*
X0910600Y0177600D01*
X0910600Y0167600D02*
X0904600Y0167600D01*
X0904600Y0147600D02*
X0910600Y0147600D01*
X0910600Y0137600D02*
X0904600Y0137600D01*
X0904600Y0127600D02*
X0910600Y0127600D01*
X0910600Y0117600D02*
X0904600Y0117600D01*
X0904600Y0097600D02*
X0910600Y0097600D01*
X0910600Y0087600D02*
X0904600Y0087600D01*
X0904600Y0077600D02*
X0910600Y0077600D01*
X0910600Y0067600D02*
X0904600Y0067600D01*
X0757600Y0025600D02*
X0757600Y0019600D01*
X0747600Y0019600D02*
X0747600Y0025600D01*
X0737600Y0025600D02*
X0737600Y0019600D01*
X0727600Y0019600D02*
X0727600Y0025600D01*
X0672600Y0025600D02*
X0672600Y0019600D01*
X0662600Y0019600D02*
X0662600Y0025600D01*
X0652600Y0025600D02*
X0652600Y0019600D01*
X0642600Y0019600D02*
X0642600Y0025600D01*
X0567600Y0054600D02*
X0567600Y0060600D01*
X0557600Y0060600D02*
X0557600Y0054600D01*
X0547600Y0054600D02*
X0547600Y0060600D01*
X0537600Y0060600D02*
X0537600Y0054600D01*
X0517600Y0054600D02*
X0517600Y0060600D01*
X0507600Y0060600D02*
X0507600Y0054600D01*
X0497600Y0054600D02*
X0497600Y0060600D01*
X0487600Y0060600D02*
X0487600Y0054600D01*
X0477600Y0054600D02*
X0477600Y0060600D01*
X0467600Y0060600D02*
X0467600Y0054600D01*
X0135600Y0052600D02*
X0129600Y0052600D01*
X0129600Y0042600D02*
X0135600Y0042600D01*
X0135600Y0032600D02*
X0129600Y0032600D01*
X0107600Y0025600D02*
X0107600Y0019600D01*
X0097600Y0019600D02*
X0097600Y0025600D01*
X0087600Y0025600D02*
X0087600Y0019600D01*
X0077600Y0019600D02*
X0077600Y0025600D01*
X0129600Y0062600D02*
X0135600Y0062600D01*
X0130600Y0257600D02*
X0124600Y0257600D01*
X0124600Y0267600D02*
X0130600Y0267600D01*
X0130600Y0277600D02*
X0124600Y0277600D01*
X0487600Y0329600D02*
X0487600Y0335600D01*
X0497600Y0335600D02*
X0497600Y0329600D01*
X0507600Y0329600D02*
X0507600Y0335600D01*
X0517600Y0335600D02*
X0517600Y0329600D01*
X0527600Y0329600D02*
X0527600Y0335600D01*
X0537600Y0335600D02*
X0537600Y0329600D01*
X0602600Y0334600D02*
X0602600Y0340600D01*
X0612600Y0340600D02*
X0612600Y0334600D01*
X0622600Y0334600D02*
X0622600Y0340600D01*
X0632600Y0340600D02*
X0632600Y0334600D01*
X0642600Y0334600D02*
X0642600Y0340600D01*
D14*
X0094600Y0337600D02*
X0080600Y0337600D01*
X0084700Y0357850D02*
X0084700Y0371850D01*
X0080600Y0212600D02*
X0094600Y0212600D01*
X0090500Y0192350D02*
X0090500Y0178350D01*
X0094600Y0107600D02*
X0080600Y0107600D01*
X0090500Y0087350D02*
X0090500Y0073350D01*
D15*
X0041300Y0062600D02*
X0033900Y0062600D01*
X0033900Y0072600D02*
X0041300Y0072600D01*
X0041300Y0082600D02*
X0033900Y0082600D01*
X0033900Y0122600D02*
X0041300Y0122600D01*
X0041300Y0132600D02*
X0033900Y0132600D01*
X0033900Y0142600D02*
X0041300Y0142600D01*
X0041300Y0202600D02*
X0033900Y0202600D01*
X0033900Y0212600D02*
X0041300Y0212600D01*
X0041300Y0222600D02*
X0033900Y0222600D01*
X0031300Y0342600D02*
X0023900Y0342600D01*
X0023900Y0352600D02*
X0031300Y0352600D01*
X0031300Y0362600D02*
X0023900Y0362600D01*
X0388900Y0362600D02*
X0396300Y0362600D01*
X0396300Y0372600D02*
X0388900Y0372600D01*
X0388900Y0382600D02*
X0396300Y0382600D01*
X0433900Y0382600D02*
X0441300Y0382600D01*
X0441300Y0372600D02*
X0433900Y0372600D01*
X0433900Y0362600D02*
X0441300Y0362600D01*
D16*
X0829600Y0202600D03*
X0829600Y0187600D03*
X0829600Y0172600D03*
X0829600Y0157600D03*
X0829600Y0142600D03*
X0829600Y0127600D03*
X0829600Y0112600D03*
X0829600Y0097600D03*
X0829600Y0082600D03*
X0829600Y0067600D03*
X0865600Y0067600D03*
X0865600Y0082600D03*
X0865600Y0097600D03*
X0865600Y0112600D03*
X0865600Y0127600D03*
X0865600Y0142600D03*
X0865600Y0157600D03*
X0865600Y0172600D03*
X0865600Y0187600D03*
X0865600Y0202600D03*
X0652600Y0747600D03*
X0652600Y0757600D03*
X0642600Y0757600D03*
X0642600Y0747600D03*
X0632600Y0747600D03*
X0632600Y0757600D03*
X0622600Y0757600D03*
X0622600Y0747600D03*
X0592600Y0747600D03*
X0592600Y0757600D03*
X0582600Y0757600D03*
X0582600Y0747600D03*
X0572600Y0747600D03*
X0572600Y0757600D03*
X0562600Y0757600D03*
X0562600Y0747600D03*
D17*
X0502600Y0407600D03*
X0702600Y0122600D03*
X0702600Y0042600D03*
D18*
X0702600Y0122600D01*
D19*
X0112600Y0147600D03*
X0112600Y0182600D03*
X0107600Y0247600D03*
X0107600Y0267600D03*
D20*
X0112600Y0182600D02*
X0112600Y0147600D01*
D21*
X0107600Y0247600D02*
X0107600Y0267600D01*
M02*
